<svg width="708" height="321" viewBox="0 0 708 321" fill="none" xmlns="http://www.w3.org/2000/svg">
<path d="M8.34465e-07 252.7V223.125L92.05 108.85H6.65V73.8502H142.275V102.55L50.225 217.525H141.925V252.7H8.34465e-07ZM275.103 256.9C258.186 256.9 243.603 252.992 231.353 245.175C219.103 237.359 209.711 226.45 203.178 212.45C196.644 198.334 193.378 181.884 193.378 163.1C193.378 143.617 196.761 126.934 203.528 113.05C210.294 99.0502 219.803 88.3169 232.053 80.8502C244.303 73.3835 258.653 69.6502 275.103 69.6502C289.219 69.6502 302.053 72.6835 313.603 78.7502C325.269 84.8169 334.544 94.1502 341.428 106.75C348.311 119.234 351.753 135.159 351.753 154.525C351.753 157.559 351.694 161.175 351.578 165.375C351.461 169.459 351.111 173.6 350.528 177.8H232.403C233.103 186.9 235.261 194.834 238.878 201.6C242.611 208.367 247.569 213.675 253.753 217.525C259.936 221.259 267.228 223.125 275.628 223.125C283.794 223.125 291.028 221.784 297.328 219.1C303.628 216.3 309.636 211.867 315.353 205.8L338.103 229.775C330.753 237.825 321.769 244.359 311.153 249.375C300.653 254.392 288.636 256.9 275.103 256.9ZM232.578 146.125H313.253C312.903 137.609 311.153 130.142 308.003 123.725C304.969 117.309 300.653 112.35 295.053 108.85C289.453 105.234 282.628 103.425 274.578 103.425C263.378 103.425 253.811 106.925 245.878 113.925C238.061 120.925 233.628 131.659 232.578 146.125ZM425.332 320.6L452.457 249.2L385.782 73.8502H425.857L466.632 184.1C467.799 186.9 468.849 189.7 469.782 192.5C470.715 195.3 471.532 198.217 472.232 201.25C473.165 198.217 474.099 195.3 475.032 192.5C475.965 189.7 476.899 186.9 477.832 184.1L518.957 73.8502H559.382L465.582 320.6H425.332ZM666.116 256.9C652.582 256.9 642.374 253.05 635.491 245.35C628.607 237.65 625.166 226.392 625.166 211.575V108.325H598.041V73.8502H625.166V18.7252L664.366 0.00017345V73.8502H706.016V108.325H664.366V203C664.366 209.417 665.591 214.2 668.041 217.35C670.607 220.384 674.516 221.9 679.766 221.9C688.282 221.9 697.557 219.1 707.591 213.5L703.216 248.85C697.732 251.534 691.957 253.517 685.891 254.8C679.824 256.2 673.232 256.9 666.116 256.9Z" fill="#C4956A"/>
</svg>
