<svg width="1024" height="1024" viewBox="0 0 1024 1024" fill="none" xmlns="http://www.w3.org/2000/svg">
<rect width="1024" height="1024" rx="50" fill="#3A4F3F"/>
<path d="M400.604 261.64C402.675 261.64 404.589 262.745 405.626 264.539L691.319 758.833C693.543 762.68 690.791 767.497 686.347 767.536L632.975 768C630.885 768.018 628.946 766.909 627.901 765.099L342.267 270.341C340.035 266.474 342.826 261.64 347.291 261.64H400.604Z" fill="#C4956A" fill-opacity="0.7"/>
<path d="M687.635 257C691.485 257 693.89 261.168 691.964 264.501L429.155 719.364C427.232 722.693 429.629 726.856 433.473 726.865L670.223 727.418C672.002 727.422 673.645 728.372 674.538 729.911L691.947 759.941C693.879 763.275 691.473 767.449 687.621 767.449H343.007C339.158 767.449 336.752 763.281 338.678 759.947L601.476 305.105C603.402 301.772 600.996 297.604 597.147 297.604H360.716C358.932 297.603 357.283 296.652 356.389 295.107L338.685 264.504C336.757 261.171 339.162 257 343.013 257H687.635Z" fill="#C4956A"/>
<circle cx="514.861" cy="512.5" r="23.2273" fill="#3A4F3F"/>
</svg>
