<svg width="1024" height="1024" viewBox="0 0 1024 1024" fill="none" xmlns="http://www.w3.org/2000/svg">
<rect width="1024" height="1024" rx="50" fill="#1D2A33"/>
<path d="M660.355 765C662.92 765.001 665.44 764.329 667.663 763.051C669.886 761.774 671.734 759.936 673.022 757.722C674.31 755.507 674.992 752.994 675 750.434C675.008 747.874 674.342 745.356 673.069 743.133L548.685 525.989L519.494 576.882L591.693 702.924C592.966 705.146 593.632 707.664 593.624 710.224C593.615 712.784 592.933 715.298 591.646 717.512C590.358 719.726 588.51 721.564 586.287 722.842C584.064 724.119 581.544 724.791 578.978 724.79L439.686 724.752C437.12 724.751 434.6 724.077 432.378 722.799C430.156 721.52 428.309 719.681 427.022 717.466C425.736 715.251 425.055 712.737 425.048 710.177C425.042 707.617 425.709 705.1 426.983 702.878L668.981 280.956C670.256 278.734 670.923 276.216 670.916 273.656C670.909 271.096 670.229 268.582 668.942 266.367C667.656 264.152 665.809 262.313 663.587 261.034C661.364 259.756 658.844 259.082 656.279 259.082C541.608 259.05 477.316 259.032 362.645 259C360.08 258.999 357.56 259.671 355.337 260.949C353.114 262.226 351.266 264.064 349.978 266.278C348.691 268.493 348.008 271.006 348 273.566C347.992 276.126 348.658 278.644 349.931 280.867L474.315 498.011L503.506 447.118L431.307 321.076C430.034 318.854 429.368 316.336 429.376 313.776C429.385 311.216 430.067 308.702 431.354 306.488C432.642 304.274 434.49 302.436 436.713 301.158C438.936 299.881 441.456 299.209 444.022 299.21L583.314 299.249C585.88 299.249 588.4 299.923 590.622 301.201C592.844 302.48 594.691 304.319 595.978 306.534C597.264 308.749 597.945 311.263 597.952 313.823C597.958 316.383 597.291 318.9 596.017 321.122L354.019 743.044C352.744 745.266 352.077 747.784 352.084 750.344C352.091 752.904 352.771 755.418 354.058 757.633C355.344 759.848 357.191 761.687 359.413 762.966C361.636 764.244 364.156 764.918 366.721 764.918L660.355 765Z" fill="#C4956A"/>
<circle cx="511.5" cy="511.5" r="17.5" fill="#1D2A33"/>
</svg>
