<svg width="1110" height="180" viewBox="0 0 1110 180" fill="none" xmlns="http://www.w3.org/2000/svg">
<rect x="0" y="22" width="136" height="136" rx="24" fill="#243140"/>
<g transform="translate(46 33) scale(0.056640625)">
<path d="M660.355 765C662.92 765.001 665.44 764.329 667.663 763.051C669.886 761.774 671.734 759.936 673.022 757.722C674.31 755.507 674.992 752.994 675 750.434C675.008 747.874 674.342 745.356 673.069 743.133L548.685 525.989L519.494 576.882L591.693 702.924C592.966 705.146 593.632 707.664 593.624 710.224C593.615 712.784 592.933 715.298 591.646 717.512C590.358 719.726 588.51 721.564 586.287 722.842C584.064 724.119 581.544 724.791 578.978 724.79L439.686 724.752C437.12 724.751 434.6 724.077 432.378 722.799C430.156 721.52 428.309 719.681 427.022 717.466C425.736 715.251 425.055 712.737 425.048 710.177C425.042 707.617 425.709 705.1 426.983 702.878L668.981 280.956C670.256 278.734 670.923 276.216 670.916 273.656C670.909 271.096 670.229 268.582 668.942 266.367C667.656 264.152 665.809 262.313 663.587 261.034C661.364 259.756 658.844 259.082 656.279 259.082C541.608 259.05 477.316 259.032 362.645 259C360.08 258.999 357.56 259.671 355.337 260.949C353.114 262.226 351.266 264.064 349.978 266.278C348.691 268.493 348.008 271.006 348 273.566C347.992 276.126 348.658 278.644 349.931 280.867L474.315 498.011L503.506 447.118L431.307 321.076C430.034 318.854 429.368 316.336 429.376 313.776C429.385 311.216 430.067 308.702 431.354 306.488C432.642 304.274 434.49 302.436 436.713 301.158C438.936 299.881 441.456 299.209 444.022 299.21L583.314 299.249C585.88 299.249 588.4 299.923 590.622 301.201C592.844 302.48 594.691 304.319 595.978 306.534C597.264 308.749 597.945 311.263 597.952 313.823C597.958 316.383 597.291 318.9 596.017 321.122L354.019 743.044C352.744 745.266 352.077 747.784 352.084 750.344C352.091 752.904 352.771 755.418 354.058 757.633C355.344 759.848 357.191 761.687 359.413 762.966C361.636 764.244 364.156 764.918 366.721 764.918L660.355 765Z" fill="#C4956A"/>
<circle cx="511.5" cy="511.5" r="17.5" fill="#243140"/>
</g>
<g transform="translate(186 45) scale(0.28)">
<path d="M8.34465e-07 252.7V223.125L92.05 108.85H6.65V73.8502H142.275V102.55L50.225 217.525H141.925V252.7H8.34465e-07ZM275.103 256.9C258.186 256.9 243.603 252.992 231.353 245.175C219.103 237.359 209.711 226.45 203.178 212.45C196.644 198.334 193.378 181.884 193.378 163.1C193.378 143.617 196.761 126.934 203.528 113.05C210.294 99.0502 219.803 88.3169 232.053 80.8502C244.303 73.3835 258.653 69.6502 275.103 69.6502C289.219 69.6502 302.053 72.6835 313.603 78.7502C325.269 84.8169 334.544 94.1502 341.428 106.75C348.311 119.234 351.753 135.159 351.753 154.525C351.753 157.559 351.694 161.175 351.578 165.375C351.461 169.459 351.111 173.6 350.528 177.8H232.403C233.103 186.9 235.261 194.834 238.878 201.6C242.611 208.367 247.569 213.675 253.753 217.525C259.936 221.259 267.228 223.125 275.628 223.125C283.794 223.125 291.028 221.784 297.328 219.1C303.628 216.3 309.636 211.867 315.353 205.8L338.103 229.775C330.753 237.825 321.769 244.359 311.153 249.375C300.653 254.392 288.636 256.9 275.103 256.9ZM232.578 146.125H313.253C312.903 137.609 311.153 130.142 308.003 123.725C304.969 117.309 300.653 112.35 295.053 108.85C289.453 105.234 282.628 103.425 274.578 103.425C263.378 103.425 253.811 106.925 245.878 113.925C238.061 120.925 233.628 131.659 232.578 146.125ZM425.332 320.6L452.457 249.2L385.782 73.8502H425.857L466.632 184.1C467.799 186.9 468.849 189.7 469.782 192.5C470.715 195.3 471.532 198.217 472.232 201.25C473.165 198.217 474.099 195.3 475.032 192.5C475.965 189.7 476.899 186.9 477.832 184.1L518.957 73.8502H559.382L465.582 320.6H425.332ZM666.116 256.9C652.582 256.9 642.374 253.05 635.491 245.35C628.607 237.65 625.166 226.392 625.166 211.575V108.325H598.041V73.8502H625.166V18.7252L664.366 0.00017345V73.8502H706.016V108.325H664.366V203C664.366 209.417 665.591 214.2 668.041 217.35C670.607 220.384 674.516 221.9 679.766 221.9C688.282 221.9 697.557 219.1 707.591 213.5L703.216 248.85C697.732 251.534 691.957 253.517 685.891 254.8C679.824 256.2 673.232 256.9 666.116 256.9Z" fill="#243140"/>
</g>
</svg>
